<?xml version="1.0" encoding="UTF-8" standalone="no"?><!-- Generator: Gravit.io --><svg xmlns="http://www.w3.org/2000/svg" xmlns:xlink="http://www.w3.org/1999/xlink" style="isolation:isolate" viewBox="440.133 420.333 157.333 157.333" width="157.333pt" height="157.333pt"><defs><clipPath id="_clipPath_sKpAViJr5qo0a5xCDJAAVpppEoWAralM"><rect x="440.133" y="420.333" width="157.333" height="157.333"/></clipPath></defs><g clip-path="url(#_clipPath_sKpAViJr5qo0a5xCDJAAVpppEoWAralM)"><circle vector-effect="non-scaling-stroke" cx="518.8" cy="499.00000000000006" r="78.66666666666671" fill="rgb(183,228,199)"/><clipPath id="_clipPath_SyeVU04IRQ2ZlameSk0qqosKOg8F8XVc"><rect x="468" y="425.2" width="100" height="125" transform="matrix(1,0,0,1,0,0)" fill="rgb(255,255,255)"/></clipPath><g clip-path="url(#_clipPath_SyeVU04IRQ2ZlameSk0qqosKOg8F8XVc)"><g><g><path d=" M 563.895 512.594 C 563.82 512.572 556.42 510.318 556.869 502.951 C 556.986 501.017 558.022 499.351 559.221 497.421 C 561.071 494.444 563.374 490.739 562.657 484.761 C 561.636 476.263 557.695 473.352 553.885 470.537 C 551.409 468.709 549.072 466.982 547.311 463.747 C 545.835 461.026 545.266 457.751 544.717 454.585 C 543.544 447.822 542.33 440.831 532.512 438.589 C 522.015 436.201 518.569 443.422 517.49 447.334 C 495.778 447.911 492.6 467.149 492.66 478.654 L 492.689 480.025 C 492.687 480.045 492.676 480.063 492.676 480.083 C 492.662 480.492 492.655 481.033 492.727 481.597 C 492.728 481.604 492.733 481.61 492.734 481.617 C 492.736 481.634 492.736 481.648 492.739 481.666 C 493.274 494.829 496.715 505.843 496.75 505.953 C 496.883 506.372 497.302 506.63 497.736 506.574 C 498.172 506.513 498.501 506.146 498.513 505.705 C 498.515 505.643 498.7 499.976 500.449 492.042 C 502.985 497.809 506.929 502.916 511.369 506.141 C 511.382 507.01 511.39 507.937 511.364 508.927 C 511.302 512.045 509.594 514.818 507.049 516.45 L 503.34 517.864 C 503.054 517.909 502.764 517.942 502.471 517.961 L 487.859 518.952 C 487.828 518.952 487.797 518.954 487.765 518.957 L 487.551 518.978 C 487.3 519 487.046 519.025 486.861 519.066 C 482.354 519.699 478.729 522.831 477.626 527.046 C 475.714 534.363 476.091 542.981 476.745 548.921 C 476.795 549.379 477.182 549.726 477.642 549.726 L 513.767 549.726 L 523.228 549.726 L 559.353 549.726 C 559.813 549.726 560.2 549.379 560.25 548.921 C 560.904 542.981 561.281 534.363 559.369 527.046 C 558.266 522.831 554.641 519.699 550.194 519.077 C 549.949 519.025 549.695 519 549.444 518.978 L 549.23 518.957 C 549.198 518.955 549.167 518.952 549.137 518.952 L 534.521 517.961 C 534.229 517.942 533.941 517.909 533.656 517.865 L 529.945 516.449 C 527.4 514.816 525.693 512.043 525.63 508.922 C 525.605 507.941 525.613 507.019 525.626 506.153 C 527.681 504.657 529.709 502.682 531.52 500.408 C 531.528 506.086 533.082 510.534 536.183 513.635 C 540.396 517.849 546.207 518.363 548.79 518.363 C 549.428 518.363 549.869 518.331 550.04 518.317 C 550.522 518.276 550.906 517.863 550.885 517.38 C 550.865 516.896 550.487 516.517 550.004 516.517 C 549.948 516.508 548.577 516.248 544.086 511.529 C 542.959 510.342 542.259 508.938 541.902 507.105 C 545.972 513.621 552.884 514.977 557.874 514.977 C 561.29 514.977 563.801 514.351 563.869 514.334 C 564.262 514.231 564.538 513.879 564.545 513.474 C 564.551 513.068 564.285 512.708 563.895 512.594 Z  M 507.85 518.077 L 508.871 517.687 L 517.286 524.547 L 511.192 533.51 L 504.843 519.384 C 505.918 519.093 506.927 518.646 507.85 518.077 Z  M 518.497 525.976 L 522.159 531.362 L 519.865 535.223 L 517.13 535.223 L 514.836 531.362 L 518.497 525.976 Z  M 513.044 547.92 L 493.461 547.92 L 493.461 541.384 C 493.461 540.885 493.057 540.481 492.558 540.481 C 492.059 540.481 491.655 540.885 491.655 541.384 L 491.655 547.92 L 478.455 547.92 C 477.874 542.176 477.614 534.233 479.373 527.503 C 480.291 523.995 483.329 521.386 487.173 520.844 C 487.349 520.807 487.532 520.792 487.712 520.776 L 487.762 520.772 C 487.864 520.78 487.968 520.772 488.07 520.748 L 502.59 519.763 C 502.732 519.754 502.871 519.73 503.012 519.716 L 510.208 535.724 C 510.342 536.022 510.627 536.225 510.953 536.253 C 510.979 536.255 511.006 536.257 511.032 536.257 C 511.329 536.257 511.609 536.11 511.778 535.862 L 513.716 533.011 L 515.657 536.278 L 513.044 547.92 Z  M 514.895 547.92 L 517.339 537.029 L 519.656 537.029 L 522.1 547.92 L 514.895 547.92 Z  M 533.983 519.716 C 534.123 519.73 534.261 519.754 534.402 519.763 L 548.925 520.748 C 549.026 520.772 549.129 520.778 549.233 520.772 L 549.283 520.776 C 549.463 520.792 549.646 520.807 549.882 520.855 C 553.666 521.386 556.704 523.995 557.622 527.503 C 559.381 534.233 559.121 542.176 558.54 547.92 L 545.34 547.92 L 545.34 541.384 C 545.34 540.885 544.936 540.481 544.437 540.481 C 543.938 540.481 543.534 540.885 543.534 541.384 L 543.534 547.92 L 523.951 547.92 L 521.338 536.278 L 523.279 533.011 L 525.217 535.862 C 525.386 536.11 525.666 536.257 525.963 536.257 C 525.989 536.257 526.016 536.255 526.042 536.253 C 526.368 536.225 526.653 536.022 526.787 535.724 L 533.983 519.716 Z  M 529.144 518.076 C 530.067 518.646 531.076 519.093 532.152 519.384 L 525.803 533.51 L 519.709 524.547 L 528.124 517.687 L 529.144 518.076 Z  M 526.944 516.32 L 518.497 523.205 L 510.051 516.32 C 511.935 514.381 513.113 511.791 513.17 508.969 C 513.184 508.417 513.189 507.879 513.187 507.358 C 513.232 507.385 513.275 507.402 513.319 507.428 C 513.737 507.667 514.15 507.885 514.554 508.073 C 514.621 508.104 514.686 508.129 514.752 508.159 C 515.122 508.324 515.486 508.467 515.843 508.588 C 515.911 508.612 515.981 508.639 516.048 508.66 C 516.435 508.783 516.81 508.876 517.177 508.945 C 517.256 508.959 517.333 508.971 517.411 508.983 C 517.784 509.042 518.149 509.081 518.497 509.081 C 518.846 509.081 519.211 509.042 519.584 508.983 C 519.662 508.971 519.739 508.959 519.818 508.945 C 520.185 508.876 520.561 508.783 520.947 508.66 C 521.014 508.639 521.083 508.612 521.151 508.589 C 521.508 508.468 521.873 508.324 522.245 508.158 C 522.31 508.129 522.374 508.104 522.44 508.074 C 522.845 507.885 523.258 507.667 523.677 507.427 C 523.721 507.401 523.763 507.384 523.808 507.358 C 523.806 507.877 523.811 508.414 523.825 508.964 C 523.881 511.789 525.06 514.381 526.944 516.32 Z  M 532.236 492.979 C 532.236 492.98 532.236 492.98 532.236 492.981 C 532.097 493.728 531.98 494.457 531.882 495.175 C 531.83 495.554 531.799 495.913 531.76 496.28 C 531.727 496.58 531.684 496.884 531.659 497.181 C 529.503 500.35 526.864 503.105 524.21 504.955 C 522.071 506.452 520.042 507.275 518.497 507.275 C 518.111 507.275 517.695 507.224 517.254 507.123 C 515.932 506.822 514.389 506.077 512.784 504.954 C 507.859 501.521 503.532 495.569 501.171 488.991 C 501.229 488.773 501.292 488.574 501.354 488.369 C 501.418 488.156 501.479 487.932 501.547 487.733 C 501.619 487.519 501.7 487.33 501.777 487.131 C 501.852 486.94 501.923 486.739 502.002 486.561 C 502.081 486.382 502.168 486.225 502.252 486.059 C 502.338 485.887 502.421 485.707 502.512 485.549 C 502.597 485.401 502.69 485.273 502.779 485.136 C 502.877 484.986 502.973 484.826 503.076 484.688 C 503.167 484.567 503.265 484.464 503.359 484.353 C 503.47 484.222 503.578 484.083 503.695 483.965 C 503.79 483.868 503.892 483.788 503.99 483.7 C 504.115 483.587 504.237 483.469 504.367 483.369 C 504.466 483.293 504.571 483.233 504.673 483.164 C 504.812 483.07 504.948 482.97 505.093 482.888 C 505.194 482.831 505.302 482.786 505.405 482.735 C 505.56 482.658 505.712 482.576 505.873 482.511 C 505.974 482.469 506.083 482.439 506.187 482.402 C 506.358 482.341 506.527 482.277 506.706 482.226 C 506.804 482.199 506.91 482.18 507.01 482.156 C 507.202 482.109 507.392 482.06 507.592 482.023 C 507.682 482.007 507.777 481.998 507.869 481.983 C 508.087 481.949 508.304 481.914 508.531 481.89 C 508.603 481.883 508.679 481.88 508.752 481.873 C 509.006 481.85 509.26 481.828 509.524 481.816 C 509.545 481.815 509.567 481.815 509.589 481.814 C 510.924 481.754 512.391 481.812 513.993 481.877 C 514.84 481.911 515.71 481.947 516.6 481.964 C 518.955 481.989 520.792 481.29 522.17 479.838 C 524.264 477.633 524.588 474.346 524.618 472.823 C 525.783 472.693 528.208 472.694 530.146 474.5 C 530.918 475.22 531.542 476.159 532.017 477.307 C 532.729 479.028 533.107 481.22 533.145 483.844 C 533.183 486.468 532.881 489.525 532.236 492.979 Z  M 542.778 512.773 C 543.953 514.008 545.316 515.359 546.588 516.417 C 543.954 516.111 540.257 515.156 537.46 512.358 C 534.226 509.124 532.872 504.15 533.438 497.535 C 533.54 496.231 533.733 494.81 534.011 493.311 C 535.877 483.321 534.991 476.547 531.377 473.179 C 531.148 472.965 530.912 472.775 530.675 472.598 C 530.6 472.542 530.523 472.495 530.447 472.443 C 530.283 472.33 530.119 472.22 529.953 472.123 C 529.864 472.071 529.775 472.025 529.686 471.977 C 529.53 471.893 529.374 471.814 529.218 471.743 C 529.127 471.702 529.037 471.663 528.947 471.626 C 528.789 471.561 528.631 471.502 528.474 471.449 C 528.39 471.42 528.307 471.39 528.223 471.365 C 528.051 471.312 527.881 471.267 527.712 471.227 C 527.648 471.212 527.583 471.193 527.52 471.179 C 527.049 471.077 526.597 471.018 526.175 470.99 C 526.134 470.987 526.096 470.987 526.055 470.985 C 525.887 470.976 525.725 470.97 525.568 470.969 C 525.553 470.969 525.535 470.968 525.519 470.968 C 525.495 470.968 525.476 470.97 525.453 470.97 C 524.914 470.974 524.458 471.018 524.119 471.068 C 524.101 471.071 524.086 471.073 524.07 471.075 C 523.904 471.1 523.772 471.124 523.673 471.145 C 523.66 471.148 523.657 471.148 523.645 471.151 C 523.558 471.17 523.493 471.185 523.476 471.19 C 523.057 471.299 522.775 471.692 522.803 472.124 C 522.806 472.165 523.052 476.294 520.855 478.6 C 519.841 479.665 518.441 480.207 516.634 480.158 C 515.758 480.141 514.9 480.107 514.065 480.073 C 507.42 479.806 501.679 479.573 499.354 488.786 C 499.346 488.816 499.34 488.851 499.335 488.887 C 498.176 493.49 497.526 497.489 497.162 500.427 C 496.14 496.026 494.844 489.139 494.54 481.522 C 494.538 481.472 494.532 481.423 494.522 481.373 C 494.523 481.37 494.522 481.359 494.521 481.338 L 494.466 478.65 C 494.408 467.688 497.416 449.274 518.343 449.102 C 518.392 449.097 518.444 449.1 518.497 449.099 C 525.512 449.099 531.787 451.692 536.168 456.401 C 540.964 461.556 543.164 468.906 542.53 477.668 C 542.501 478.17 542.457 478.657 542.412 479.17 C 542.309 480.493 542.19 481.769 542.059 482.995 C 542.057 483.015 542.055 483.036 542.053 483.056 C 542.053 483.057 542.053 483.058 542.053 483.059 C 542.053 483.06 542.053 483.06 542.053 483.061 C 541.68 486.7 541.248 489.942 540.867 492.801 C 540.374 496.504 539.949 499.701 539.837 502.407 C 539.629 507.283 540.507 510.383 542.778 512.773 Z  M 541.651 502.33 C 541.669 501.933 541.702 501.509 541.733 501.089 C 541.751 500.839 541.762 500.604 541.784 500.346 C 541.826 499.873 541.881 499.367 541.935 498.866 C 541.962 498.605 541.984 498.361 542.014 498.093 C 542.074 497.57 542.145 497.014 542.214 496.462 C 542.248 496.187 542.278 495.928 542.314 495.646 C 542.422 494.807 542.538 493.94 542.657 493.04 C 542.822 491.803 542.997 490.48 543.172 489.099 C 543.198 488.891 543.224 488.696 543.25 488.485 C 543.306 488.039 543.36 487.569 543.416 487.108 C 543.461 486.73 543.507 486.364 543.551 485.976 C 543.597 485.579 543.64 485.16 543.685 484.752 C 543.736 484.29 543.788 483.84 543.837 483.365 C 543.9 483.195 543.946 483.018 543.997 482.843 C 544.023 482.754 544.057 482.667 544.08 482.576 C 544.153 482.285 544.211 481.986 544.253 481.674 C 544.31 481.23 544.333 480.796 544.325 480.372 C 544.323 480.225 544.297 480.088 544.287 479.944 C 544.27 479.693 544.262 479.438 544.221 479.196 C 544.264 478.727 544.305 478.258 544.333 477.786 C 545.002 468.523 542.636 460.703 537.49 455.171 C 536.91 454.548 536.298 453.961 535.66 453.407 C 535.452 453.227 535.225 453.072 535.011 452.899 C 534.569 452.542 534.129 452.181 533.663 451.856 C 533.39 451.666 533.099 451.504 532.818 451.325 C 532.387 451.051 531.96 450.77 531.511 450.523 C 531.198 450.35 530.869 450.205 530.547 450.045 C 530.108 449.828 529.673 449.605 529.22 449.412 C 528.874 449.265 528.514 449.145 528.16 449.014 C 527.711 448.846 527.264 448.674 526.803 448.531 C 526.429 448.415 526.044 448.325 525.663 448.225 C 525.202 448.104 524.743 447.98 524.272 447.883 C 523.875 447.802 523.469 447.744 523.065 447.68 C 522.594 447.604 522.124 447.528 521.644 447.476 C 521.226 447.431 520.801 447.408 520.377 447.381 C 520.042 447.36 519.714 447.316 519.376 447.307 C 520.568 443.442 523.736 438.442 532.111 440.349 C 540.757 442.323 541.768 448.149 542.937 454.893 C 543.512 458.203 544.106 461.627 545.724 464.609 C 547.677 468.197 550.287 470.126 552.812 471.99 C 556.475 474.696 559.935 477.252 560.864 484.976 C 561.506 490.324 559.565 493.448 557.688 496.468 C 556.414 498.517 555.212 500.452 555.065 502.841 C 554.727 508.41 558.123 511.522 560.679 513.062 C 555.679 513.634 545.298 513.385 541.651 502.33 Z " fill="rgb(8,28,21)" vector-effect="non-scaling-stroke" stroke-width="1" stroke="rgb(8,28,21)" stroke-linejoin="miter" stroke-linecap="butt" stroke-miterlimit="4"/></g></g></g></g></svg>